<svg width="124" height="40" viewBox="0 0 124 40" fill="none" xmlns="http://www.w3.org/2000/svg">
<g clip-path="url(#clip0_54647_24952)">
<path d="M-22.54 104.54H146.539V-64.5392H-22.54V104.54Z" fill="white"/>
<mask id="mask0_54647_24952" style="mask-type:luminance" maskUnits="userSpaceOnUse" x="-23" y="-65" width="170" height="170">
<path d="M-22.54 -64.5402H146.539V104.539H-22.54V-64.5402Z" fill="white"/>
</mask>
<g mask="url(#mask0_54647_24952)">
<path d="M19.2639 17.6845C17.7401 19.6005 17.9176 20.1423 16.6732 20.3164L16.9938 18.6138C20.9195 19.561 19.721 17.6264 19.721 14.8785C19.721 12.8076 19.0353 11.9754 17.6383 11.9754C15.7842 11.9754 15.5049 12.4978 14.7937 14.3946L13.8286 16.949C13.5236 17.7423 11.3395 17.2395 10.7555 17.8005C9.8918 18.7102 10.1204 20.0841 8.62201 20.0841C7.07257 20.0841 7.17402 18.2262 6.59002 17.5104C5.98032 16.7749 3.71973 16.7941 3.71973 15.0912C3.71973 13.2722 5.82781 13.6205 6.69146 12.6334C7.45367 11.7434 7.2758 10.2531 8.67273 9.96301L10.6283 11.6464C6.92006 12.0528 6.25963 12.8076 6.25963 15.0912C6.25963 16.5233 6.48857 18.1488 8.74882 18.1488C10.4761 18.1488 10.9587 17.4911 11.6445 15.7107L12.6603 13.0785C13.016 12.1692 15.4542 12.7109 15.9114 12.0336C16.6732 10.9305 16.4954 10.0208 17.5115 10.0208C18.7813 10.0208 18.7052 11.666 19.3149 12.3626C20.2036 13.3497 22.261 13.1559 22.261 14.8785C22.261 16.6007 20.534 16.059 19.2639 17.6845Z" fill="#53EAFD"/>
<path d="M7.33498 21.0554C8.85872 19.1394 8.06304 18.4444 9.30746 18.2703L9.50799 18.6737C5.67259 18.9057 6.25964 20.9603 6.25964 23.7086C6.25964 25.7791 6.94542 26.6113 8.34235 26.6113C10.1965 26.6113 10.4758 26.0888 11.1869 24.1921L12.152 21.6377C12.4571 20.8443 14.6412 21.3472 15.2252 20.7862C16.0889 19.8765 15.8603 18.5026 17.3587 18.5026C18.9081 18.5026 18.8067 20.3604 19.3907 21.0763C20.0004 21.8118 22.261 21.7925 22.261 23.4955C22.261 25.3148 20.1529 24.9662 19.2892 25.9532C18.527 26.8436 18.7049 28.3335 17.308 28.624L15.3524 26.9403C19.0606 26.5339 19.7211 25.7791 19.7211 23.4955C19.7211 22.0634 19.4921 20.4379 17.2319 20.4379C15.5046 20.4379 15.022 21.0959 14.3362 22.876L13.3204 25.5082C12.9646 26.4179 10.5265 25.8758 10.0693 26.5531C9.30746 27.6562 9.48533 28.5659 8.46916 28.5659C7.19938 28.5659 7.27546 26.9211 6.66576 26.2241C5.77708 25.2374 3.71973 25.4308 3.71973 23.7086C3.71973 21.986 6.06486 22.6809 7.33498 21.0554Z" fill="#53EAFD"/>
<path d="M33.708 20.3744C30.9872 20.7291 29.3116 21.4389 29.3116 23.3908C29.3116 24.9483 30.6916 25.7765 33.1166 25.7765C35.2855 25.7765 37.7105 24.5736 37.7105 22.4642V19.8421L33.708 20.3744ZM37.7105 18.8168V18.3434C37.7105 15.8989 36.4485 14.9131 33.6093 14.9131C30.9676 14.9131 29.7059 16.3324 29.7059 17.8899V18.2054H28.5623V17.6928C28.5623 15.8001 30.2774 13.8875 33.6093 13.8875C37.1386 13.8875 38.8538 15.3663 38.8538 18.1463V26.565H37.7105V24.7116C37.3162 25.5989 35.4035 26.8018 33.1166 26.8018C30.1986 26.8018 28.168 25.6781 28.168 23.3908C28.168 21.025 30.1002 19.8222 33.708 19.3491L37.7105 18.8168Z" fill="#101828"/>
<path d="M33.708 20.3744C30.9872 20.7291 29.3116 21.4389 29.3116 23.3908C29.3116 24.9483 30.6916 25.7765 33.1166 25.7765C35.2855 25.7765 37.7105 24.5736 37.7105 22.4642V19.8421L33.708 20.3744ZM37.7105 18.8168V18.3434C37.7105 15.8989 36.4485 14.9131 33.6093 14.9131C30.9676 14.9131 29.7059 16.3324 29.7059 17.8899V18.2054H28.5623V17.6928C28.5623 15.8001 30.2774 13.8875 33.6093 13.8875C37.1386 13.8875 38.8538 15.3663 38.8538 18.1463V26.565H37.7105V24.7116C37.3162 25.5989 35.4035 26.8018 33.1166 26.8018C30.1986 26.8018 28.168 25.6781 28.168 23.3908C28.168 21.025 30.1002 19.8222 33.708 19.3491L37.7105 18.8168Z" stroke="#101828" stroke-width="0.52" stroke-miterlimit="10"/>
<path d="M41.2 14.0845H42.3436V26.5449H41.2V14.0845ZM42.8164 10.082C42.8164 10.7526 42.3041 11.1665 41.7718 11.1665C41.2392 11.1665 40.7266 10.7526 40.7266 10.082C40.7266 9.43174 41.2392 9.01749 41.7718 9.01749C42.3041 9.01749 42.8164 9.43174 42.8164 10.082Z" fill="#101828"/>
<path d="M41.2 14.0845H42.3436V26.5449H41.2V14.0845ZM42.8164 10.082C42.8164 10.7526 42.3041 11.1665 41.7718 11.1665C41.2392 11.1665 40.7266 10.7526 40.7266 10.082C40.7266 9.43174 41.2392 9.01749 41.7718 9.01749C42.3041 9.01749 42.8164 9.43174 42.8164 10.082Z" stroke="#101828" stroke-width="0.52" stroke-miterlimit="10"/>
<path d="M45.7731 17.0417C46.6208 15.2869 48.7106 13.887 51.1356 14.0449V15.149C48.5531 14.9914 46.6012 16.6277 45.7731 18.6192V26.5449H44.5898V14.0845H45.7731V17.0417Z" fill="#101828"/>
<path d="M45.7731 17.0417C46.6208 15.2869 48.7106 13.887 51.1356 14.0449V15.149C48.5531 14.9914 46.6012 16.6277 45.7731 18.6192V26.5449H44.5898V14.0845H45.7731V17.0417Z" stroke="#101828" stroke-width="0.52" stroke-miterlimit="10"/>
<path d="M52.043 23.036H53.2258C53.2258 24.7907 55.2565 25.8556 57.4846 25.8556C59.5153 25.8556 61.6446 25.1262 61.6446 23.4502C61.6446 22.0307 60.5206 21.4984 58.5884 20.8674L56.4001 20.1576C53.7189 19.3098 52.7132 18.2057 52.7132 16.8257C52.7132 15.0118 54.6454 13.8286 57.4055 13.8286C60.4618 13.8286 62.1177 15.4257 62.1177 17.082H60.9348C60.9348 15.84 59.4365 14.8539 57.4254 14.8539C55.3948 14.8539 53.8961 15.4849 53.8961 16.7665C53.8961 17.8114 54.6059 18.4817 56.6957 19.1522L58.6871 19.8025C61.1716 20.6111 62.8275 21.4984 62.8275 23.4107C62.8275 25.5005 60.3235 26.8809 57.4846 26.8809C54.0344 26.8809 52.043 25.2049 52.043 23.036Z" fill="#101828"/>
<path d="M52.043 23.036H53.2258C53.2258 24.7907 55.2565 25.8556 57.4846 25.8556C59.5153 25.8556 61.6446 25.1262 61.6446 23.4502C61.6446 22.0307 60.5206 21.4984 58.5884 20.8674L56.4001 20.1576C53.7189 19.3098 52.7132 18.2057 52.7132 16.8257C52.7132 15.0118 54.6454 13.8286 57.4055 13.8286C60.4618 13.8286 62.1177 15.4257 62.1177 17.082H60.9348C60.9348 15.84 59.4365 14.8539 57.4254 14.8539C55.3948 14.8539 53.8961 15.4849 53.8961 16.7665C53.8961 17.8114 54.6059 18.4817 56.6957 19.1522L58.6871 19.8025C61.1716 20.6111 62.8275 21.4984 62.8275 23.4107C62.8275 25.5005 60.3235 26.8809 57.4846 26.8809C54.0344 26.8809 52.043 25.2049 52.043 23.036Z" stroke="#101828" stroke-width="0.52" stroke-miterlimit="10"/>
<path d="M68.0728 26.5449C66.1997 26.5449 65.3716 25.2241 65.3716 23.2719V15.1098H63.5381V14.0845H65.4111V9.86525H66.594V14.0845H69.1569V15.1098H66.594V23.351C66.594 24.6719 66.9491 25.5196 68.3487 25.5196H69.3541V26.5449H68.0728Z" fill="#101828"/>
<path d="M68.0728 26.5449C66.1997 26.5449 65.3716 25.2241 65.3716 23.2719V15.1098H63.5381V14.0845H65.4111V9.86525H66.594V14.0845H69.1569V15.1098H66.594V23.351C66.594 24.6719 66.9491 25.5196 68.3487 25.5196H69.3541V26.5449H68.0728Z" stroke="#101828" stroke-width="0.52" stroke-miterlimit="10"/>
<path d="M71.9163 17.0417C72.7644 15.2869 74.8542 13.887 77.2791 14.0449V15.149C74.6963 14.9914 72.7444 16.6277 71.9163 18.6192V26.5449H70.7334V14.0845H71.9163V17.0417Z" fill="#101828"/>
<path d="M71.9163 17.0417C72.7644 15.2869 74.8542 13.887 77.2791 14.0449V15.149C74.6963 14.9914 72.7444 16.6277 71.9163 18.6192V26.5449H70.7334V14.0845H71.9163V17.0417Z" stroke="#101828" stroke-width="0.52" stroke-miterlimit="10"/>
<path d="M87.8079 19.2111C87.8079 16.6678 86.2507 14.8539 83.4115 14.8539C80.5723 14.8539 79.0147 16.6678 79.0147 19.2111V19.7434H87.8079V19.2111ZM87.6107 22.7993V22.5826H88.7544V22.9965C88.7544 24.8895 86.7437 26.8018 83.4115 26.8018C79.8825 26.8018 77.8711 24.4952 77.8711 21.6164V19.014C77.8711 16.1356 79.8825 13.8286 83.4115 13.8286C86.9408 13.8286 88.9515 16.1356 88.9515 19.014V20.7098H79.0147V21.4193C79.0147 23.9629 80.5723 25.7765 83.4115 25.7765C86.0535 25.7765 87.6107 24.3572 87.6107 22.7993Z" fill="#101828"/>
<path d="M87.8079 19.2111C87.8079 16.6678 86.2507 14.8539 83.4115 14.8539C80.5723 14.8539 79.0147 16.6678 79.0147 19.2111V19.7434H87.8079V19.2111ZM87.6107 22.7993V22.5826H88.7544V22.9965C88.7544 24.8895 86.7437 26.8018 83.4115 26.8018C79.8825 26.8018 77.8711 24.4952 77.8711 21.6164V19.014C77.8711 16.1356 79.8825 13.8286 83.4115 13.8286C86.9408 13.8286 88.9515 16.1356 88.9515 19.014V20.7098H79.0147V21.4193C79.0147 23.9629 80.5723 25.7765 83.4115 25.7765C86.0535 25.7765 87.6107 24.3572 87.6107 22.7993Z" stroke="#101828" stroke-width="0.52" stroke-miterlimit="10"/>
<path d="M96.0687 20.3744C93.3479 20.7291 91.672 21.4389 91.672 23.3908C91.672 24.9483 93.052 25.7765 95.4773 25.7765C97.6459 25.7765 100.071 24.5736 100.071 22.4642V19.8421L96.0687 20.3744ZM100.071 18.8168V18.3434C100.071 15.8989 98.8091 14.9131 95.97 14.9131C93.3283 14.9131 92.0663 16.3324 92.0663 17.8899V18.2054H90.9226V17.6928C90.9226 15.8001 92.6378 13.8875 95.97 13.8875C99.4993 13.8875 101.214 15.3663 101.214 18.1463V26.565H100.071V24.7116C99.6765 25.5989 97.7642 26.8018 95.4773 26.8018C92.5593 26.8018 90.5283 25.6781 90.5283 23.3908C90.5283 21.025 92.4606 19.8222 96.0687 19.3491L100.071 18.8168Z" fill="#101828"/>
<path d="M96.0687 20.3744C93.3479 20.7291 91.672 21.4389 91.672 23.3908C91.672 24.9483 93.052 25.7765 95.4773 25.7765C97.6459 25.7765 100.071 24.5736 100.071 22.4642V19.8421L96.0687 20.3744ZM100.071 18.8168V18.3434C100.071 15.8989 98.8091 14.9131 95.97 14.9131C93.3283 14.9131 92.0663 16.3324 92.0663 17.8899V18.2054H90.9226V17.6928C90.9226 15.8001 92.6378 13.8875 95.97 13.8875C99.4993 13.8875 101.214 15.3663 101.214 18.1463V26.565H100.071V24.7116C99.6765 25.5989 97.7642 26.8018 95.4773 26.8018C92.5593 26.8018 90.5283 25.6781 90.5283 23.3908C90.5283 21.025 92.4606 19.8222 96.0687 19.3491L100.071 18.8168Z" stroke="#101828" stroke-width="0.52" stroke-miterlimit="10"/>
<path d="M104.429 26.5449H103.285V14.0845H104.429V15.4841C105.73 14.8139 107.367 14.0845 109.003 14.0845C110.344 14.0845 111.329 14.5575 111.783 15.6616C113.045 14.7155 114.563 14.0845 116.101 14.0845C117.993 14.0845 119.373 15.2278 119.373 17.7514V26.5449H118.23V17.7514C118.23 15.9967 117.362 15.0702 116.101 15.0702C114.602 15.0702 113.202 15.6812 112.019 16.5882C112.039 16.8249 112.079 17.0812 112.079 17.3572V26.5449H110.935V17.3572C110.935 15.7996 110.265 15.0702 109.003 15.0702C107.288 15.0702 105.73 15.78 104.429 16.5882V26.5449Z" fill="#101828"/>
<path d="M104.429 26.5449H103.285V14.0845H104.429V15.4841C105.73 14.8139 107.367 14.0845 109.003 14.0845C110.344 14.0845 111.329 14.5575 111.783 15.6616C113.045 14.7155 114.563 14.0845 116.101 14.0845C117.993 14.0845 119.373 15.2278 119.373 17.7514V26.5449H118.23V17.7514C118.23 15.9967 117.362 15.0702 116.101 15.0702C114.602 15.0702 113.202 15.6812 112.019 16.5882C112.039 16.8249 112.079 17.0812 112.079 17.3572V26.5449H110.935V17.3572C110.935 15.7996 110.265 15.0702 109.003 15.0702C107.288 15.0702 105.73 15.78 104.429 16.5882V26.5449Z" stroke="#101828" stroke-width="0.52" stroke-miterlimit="10"/>
</g>
</g>
<defs>
<clipPath id="clip0_54647_24952">
<rect width="123.5" height="39" fill="white" transform="translate(0.25 0.5)"/>
</clipPath>
</defs>
</svg>
