<svg width="124" height="40" viewBox="0 0 124 40" fill="none" xmlns="http://www.w3.org/2000/svg">
<path d="M-22.5391 104.177H146.54V-64.9025H-22.5391V104.177Z" fill="white"/>
<mask id="mask0_54647_27510" style="mask-type:luminance" maskUnits="userSpaceOnUse" x="-23" y="-65" width="170" height="170">
<path d="M-22.5391 -64.9035H146.54V104.176H-22.5391V-64.9035Z" fill="white"/>
</mask>
<g mask="url(#mask0_54647_27510)">
<path d="M19.2648 17.3212C17.7411 19.2372 17.9186 19.779 16.6742 19.9531L16.9948 18.2505C20.9205 19.1977 19.722 17.2631 19.722 14.5152C19.722 12.4443 19.0362 11.6121 17.6393 11.6121C15.7852 11.6121 15.5059 12.1346 14.7947 14.0313L13.8296 16.5857C13.5246 17.3791 11.3404 16.8762 10.7564 17.4372C9.89277 18.3469 10.1214 19.7208 8.62299 19.7208C7.07354 19.7208 7.17499 17.863 6.59099 17.1471C5.98129 16.4116 3.7207 16.4309 3.7207 14.7279C3.7207 12.9089 5.82878 13.2572 6.69244 12.2702C7.45465 11.3801 7.27678 9.88987 8.67371 9.59973L10.6293 11.2831C6.92103 11.6895 6.26061 12.4443 6.26061 14.7279C6.26061 16.16 6.48954 17.7855 8.7498 17.7855C10.4771 17.7855 10.9597 17.1278 11.6454 15.3474L12.6613 12.7152C13.017 11.8059 15.4551 12.3476 15.9123 11.6703C16.6742 10.5672 16.4963 9.65755 17.5125 9.65755C18.7823 9.65755 18.7062 11.3027 19.3159 11.9993C20.2046 12.9864 22.2619 12.7926 22.2619 14.5152C22.2619 16.2374 20.535 15.6957 19.2648 17.3212Z" fill="#53EAFD"/>
<path d="M7.33596 20.6921C8.8597 18.7761 8.06401 18.0812 9.30843 17.907L9.50896 18.3104C5.67357 18.5424 6.26061 20.5971 6.26061 23.3453C6.26061 25.4158 6.9464 26.248 8.34333 26.248C10.1975 26.248 10.4768 25.7256 11.1879 23.8288L12.153 21.2744C12.458 20.4811 14.6422 20.9839 15.2262 20.4229C16.0899 19.5133 15.8613 18.1393 17.3597 18.1393C18.9091 18.1393 18.8076 19.9972 19.3916 20.713C20.0013 21.4485 22.2619 21.4293 22.2619 23.1322C22.2619 24.9515 20.1539 24.6029 19.2902 25.59C18.528 26.4803 18.7059 27.9703 17.3089 28.2607L15.3534 26.5771C19.0616 26.1706 19.722 25.4158 19.722 23.1322C19.722 21.7001 19.4931 20.0746 17.2328 20.0746C15.5055 20.0746 15.023 20.7327 14.3372 22.5127L13.3214 25.1449C12.9656 26.0546 10.5275 25.5125 10.0703 26.1899C9.30843 27.2929 9.48631 28.2026 8.47014 28.2026C7.20035 28.2026 7.27644 26.5578 6.66674 25.8608C5.77806 24.8741 3.7207 25.0675 3.7207 23.3453C3.7207 21.6227 6.06583 22.3176 7.33596 20.6921Z" fill="#53EAFD"/>
<path d="M33.708 20.0111C30.9872 20.3658 29.3116 21.0756 29.3116 23.0275C29.3116 24.585 30.6916 25.4132 33.1166 25.4132C35.2855 25.4132 37.7105 24.2104 37.7105 22.1009V19.4788L33.708 20.0111ZM37.7105 18.4535V17.9801C37.7105 15.5356 36.4485 14.5498 33.6093 14.5498C30.9676 14.5498 29.7059 15.9691 29.7059 17.5266V17.8421H28.5623V17.3295C28.5623 15.4368 30.2774 13.5242 33.6093 13.5242C37.1386 13.5242 38.8538 15.003 38.8538 17.783V26.2018H37.7105V24.3483C37.3162 25.2356 35.4035 26.4385 33.1166 26.4385C30.1986 26.4385 28.168 25.3148 28.168 23.0275C28.168 20.6617 30.1002 19.4589 33.708 18.9858L37.7105 18.4535Z" fill="#101828"/>
<path d="M33.708 20.0111C30.9872 20.3658 29.3116 21.0756 29.3116 23.0275C29.3116 24.585 30.6916 25.4132 33.1166 25.4132C35.2855 25.4132 37.7105 24.2104 37.7105 22.1009V19.4788L33.708 20.0111ZM37.7105 18.4535V17.9801C37.7105 15.5356 36.4485 14.5498 33.6093 14.5498C30.9676 14.5498 29.7059 15.9691 29.7059 17.5266V17.8421H28.5623V17.3295C28.5623 15.4368 30.2774 13.5242 33.6093 13.5242C37.1386 13.5242 38.8538 15.003 38.8538 17.783V26.2018H37.7105V24.3483C37.3162 25.2356 35.4035 26.4385 33.1166 26.4385C30.1986 26.4385 28.168 25.3148 28.168 23.0275C28.168 20.6617 30.1002 19.4589 33.708 18.9858L37.7105 18.4535Z" stroke="#101828" stroke-width="0.52" stroke-miterlimit="10"/>
<path d="M41.2019 13.7212H42.3456V26.1816H41.2019V13.7212ZM42.8183 9.71874C42.8183 10.3893 42.306 10.8032 41.7738 10.8032C41.2412 10.8032 40.7285 10.3893 40.7285 9.71874C40.7285 9.06846 41.2412 8.65421 41.7738 8.65421C42.306 8.65421 42.8183 9.06846 42.8183 9.71874Z" fill="#101828"/>
<path d="M41.2019 13.7212H42.3456V26.1816H41.2019V13.7212ZM42.8183 9.71874C42.8183 10.3893 42.306 10.8032 41.7738 10.8032C41.2412 10.8032 40.7285 10.3893 40.7285 9.71874C40.7285 9.06846 41.2412 8.65421 41.7738 8.65421C42.306 8.65421 42.8183 9.06846 42.8183 9.71874Z" stroke="#101828" stroke-width="0.52" stroke-miterlimit="10"/>
<path d="M45.775 16.6784C46.6228 14.9237 48.7126 13.5237 51.1375 13.6816V14.7857C48.555 14.6281 46.6032 16.2645 45.775 18.2559V26.1816H44.5918V13.7212H45.775V16.6784Z" fill="#101828"/>
<path d="M45.775 16.6784C46.6228 14.9237 48.7126 13.5237 51.1375 13.6816V14.7857C48.555 14.6281 46.6032 16.2645 45.775 18.2559V26.1816H44.5918V13.7212H45.775V16.6784Z" stroke="#101828" stroke-width="0.52" stroke-miterlimit="10"/>
<path d="M52.0449 22.6727H53.2278C53.2278 24.4274 55.2584 25.4923 57.4866 25.4923C59.5172 25.4923 61.6466 24.7629 61.6466 23.087C61.6466 21.6674 60.5226 21.1351 58.5903 20.5041L56.4021 19.7943C53.7208 18.9465 52.7152 17.8425 52.7152 16.4624C52.7152 14.6486 54.6474 13.4653 57.4074 13.4653C60.4637 13.4653 62.1197 15.0625 62.1197 16.7188H60.9368C60.9368 15.4767 59.4384 14.4906 57.4274 14.4906C55.3967 14.4906 53.898 15.1216 53.898 16.4033C53.898 17.4482 54.6078 18.1184 56.6976 18.789L58.6891 19.4392C61.1735 20.2478 62.8295 21.1351 62.8295 23.0474C62.8295 25.1372 60.3254 26.5176 57.4866 26.5176C54.0363 26.5176 52.0449 24.8417 52.0449 22.6727Z" fill="#101828"/>
<path d="M52.0449 22.6727H53.2278C53.2278 24.4274 55.2584 25.4923 57.4866 25.4923C59.5172 25.4923 61.6466 24.7629 61.6466 23.087C61.6466 21.6674 60.5226 21.1351 58.5903 20.5041L56.4021 19.7943C53.7208 18.9465 52.7152 17.8425 52.7152 16.4624C52.7152 14.6486 54.6474 13.4653 57.4074 13.4653C60.4637 13.4653 62.1197 15.0625 62.1197 16.7188H60.9368C60.9368 15.4767 59.4384 14.4906 57.4274 14.4906C55.3967 14.4906 53.898 15.1216 53.898 16.4033C53.898 17.4482 54.6078 18.1184 56.6976 18.789L58.6891 19.4392C61.1735 20.2478 62.8295 21.1351 62.8295 23.0474C62.8295 25.1372 60.3254 26.5176 57.4866 26.5176C54.0363 26.5176 52.0449 24.8417 52.0449 22.6727Z" stroke="#101828" stroke-width="0.52" stroke-miterlimit="10"/>
<path d="M68.0738 26.1816C66.2007 26.1816 65.3726 24.8608 65.3726 22.9086V14.7465H63.5391V13.7212H65.4121V9.50197H66.595V13.7212H69.1579V14.7465H66.595V22.9877C66.595 24.3086 66.9501 25.1563 68.3497 25.1563H69.3551V26.1816H68.0738Z" fill="#101828"/>
<path d="M68.0738 26.1816C66.2007 26.1816 65.3726 24.8608 65.3726 22.9086V14.7465H63.5391V13.7212H65.4121V9.50197H66.595V13.7212H69.1579V14.7465H66.595V22.9877C66.595 24.3086 66.9501 25.1563 68.3497 25.1563H69.3551V26.1816H68.0738Z" stroke="#101828" stroke-width="0.52" stroke-miterlimit="10"/>
<path d="M71.9173 16.6784C72.7654 14.9237 74.8552 13.5237 77.2801 13.6816V14.7857C74.6973 14.6281 72.7454 16.2645 71.9173 18.2559V26.1816H70.7344V13.7212H71.9173V16.6784Z" fill="#101828"/>
<path d="M71.9173 16.6784C72.7654 14.9237 74.8552 13.5237 77.2801 13.6816V14.7857C74.6973 14.6281 72.7454 16.2645 71.9173 18.2559V26.1816H70.7344V13.7212H71.9173V16.6784Z" stroke="#101828" stroke-width="0.52" stroke-miterlimit="10"/>
<path d="M87.8098 18.8478C87.8098 16.3045 86.2526 14.4907 83.4134 14.4907C80.5743 14.4907 79.0167 16.3045 79.0167 18.8478V19.3801H87.8098V18.8478ZM87.6127 22.436V22.2193H88.7563V22.6332C88.7563 24.5262 86.7457 26.4385 83.4134 26.4385C79.8844 26.4385 77.873 24.1319 77.873 21.2532V18.6507C77.873 15.7723 79.8844 13.4654 83.4134 13.4654C86.9428 13.4654 88.9535 15.7723 88.9535 18.6507V20.3466H79.0167V21.056C79.0167 23.5996 80.5743 25.4132 83.4134 25.4132C86.0555 25.4132 87.6127 23.9939 87.6127 22.436Z" fill="#101828"/>
<path d="M87.8098 18.8478C87.8098 16.3045 86.2526 14.4907 83.4134 14.4907C80.5743 14.4907 79.0167 16.3045 79.0167 18.8478V19.3801H87.8098V18.8478ZM87.6127 22.436V22.2193H88.7563V22.6332C88.7563 24.5262 86.7457 26.4385 83.4134 26.4385C79.8844 26.4385 77.873 24.1319 77.873 21.2532V18.6507C77.873 15.7723 79.8844 13.4654 83.4134 13.4654C86.9428 13.4654 88.9535 15.7723 88.9535 18.6507V20.3466H79.0167V21.056C79.0167 23.5996 80.5743 25.4132 83.4134 25.4132C86.0555 25.4132 87.6127 23.9939 87.6127 22.436Z" stroke="#101828" stroke-width="0.52" stroke-miterlimit="10"/>
<path d="M96.0697 20.0111C93.3489 20.3658 91.6729 21.0756 91.6729 23.0275C91.6729 24.585 93.053 25.4132 95.4782 25.4132C97.6469 25.4132 100.072 24.2104 100.072 22.1009V19.4788L96.0697 20.0111ZM100.072 18.4535V17.9801C100.072 15.5356 98.8101 14.5498 95.9709 14.5498C93.3292 14.5498 92.0672 15.9691 92.0672 17.5266V17.8421H90.9236V17.3295C90.9236 15.4368 92.6387 13.5242 95.9709 13.5242C99.5003 13.5242 101.215 15.003 101.215 17.783V26.2018H100.072V24.3483C99.6775 25.2356 97.7652 26.4385 95.4782 26.4385C92.5603 26.4385 90.5293 25.3148 90.5293 23.0275C90.5293 20.6617 92.4615 19.4589 96.0697 18.9858L100.072 18.4535Z" fill="#101828"/>
<path d="M96.0697 20.0111C93.3489 20.3658 91.6729 21.0756 91.6729 23.0275C91.6729 24.585 93.053 25.4132 95.4782 25.4132C97.6469 25.4132 100.072 24.2104 100.072 22.1009V19.4788L96.0697 20.0111ZM100.072 18.4535V17.9801C100.072 15.5356 98.8101 14.5498 95.9709 14.5498C93.3292 14.5498 92.0672 15.9691 92.0672 17.5266V17.8421H90.9236V17.3295C90.9236 15.4368 92.6387 13.5242 95.9709 13.5242C99.5003 13.5242 101.215 15.003 101.215 17.783V26.2018H100.072V24.3483C99.6775 25.2356 97.7652 26.4385 95.4782 26.4385C92.5603 26.4385 90.5293 25.3148 90.5293 23.0275C90.5293 20.6617 92.4615 19.4589 96.0697 18.9858L100.072 18.4535Z" stroke="#101828" stroke-width="0.52" stroke-miterlimit="10"/>
<path d="M104.429 26.1816H103.285V13.7212H104.429V15.1208C105.73 14.4506 107.367 13.7212 109.003 13.7212C110.344 13.7212 111.329 14.1943 111.783 15.2983C113.045 14.3522 114.563 13.7212 116.101 13.7212C117.993 13.7212 119.373 14.8645 119.373 17.3882V26.1816H118.23V17.3882C118.23 15.6335 117.362 14.7069 116.101 14.7069C114.602 14.7069 113.202 15.318 112.019 16.2249C112.039 16.4616 112.079 16.7179 112.079 16.9939V26.1816H110.935V16.9939C110.935 15.4363 110.265 14.7069 109.003 14.7069C107.288 14.7069 105.73 15.4167 104.429 16.2249V26.1816Z" fill="#101828"/>
<path d="M104.429 26.1816H103.285V13.7212H104.429V15.1208C105.73 14.4506 107.367 13.7212 109.003 13.7212C110.344 13.7212 111.329 14.1943 111.783 15.2983C113.045 14.3522 114.563 13.7212 116.101 13.7212C117.993 13.7212 119.373 14.8645 119.373 17.3882V26.1816H118.23V17.3882C118.23 15.6335 117.362 14.7069 116.101 14.7069C114.602 14.7069 113.202 15.318 112.019 16.2249C112.039 16.4616 112.079 16.7179 112.079 16.9939V26.1816H110.935V16.9939C110.935 15.4363 110.265 14.7069 109.003 14.7069C107.288 14.7069 105.73 15.4167 104.429 16.2249V26.1816Z" stroke="#101828" stroke-width="0.52" stroke-miterlimit="10"/>
</g>
</svg>
