<svg width="18" height="20" viewBox="0 0 18 20" fill="none" xmlns="http://www.w3.org/2000/svg">
<path d="M3.50972 11.7105C4.98898 9.8504 4.21652 9.17577 5.42462 9.0067L5.6193 9.39835C1.89586 9.62355 2.46577 11.6182 2.46577 14.2862C2.46577 16.2963 3.13153 17.1042 4.48769 17.1042C6.28769 17.1042 6.55885 16.597 7.24924 14.7557L8.18618 12.2758C8.48229 11.5056 10.6027 11.9938 11.1697 11.4492C12.0081 10.5661 11.7862 9.23223 13.2408 9.23223C14.745 9.23223 14.6465 11.0358 15.2135 11.7308C15.8054 12.4449 18 12.4261 18 14.0794C18 15.8456 15.9535 15.5071 15.115 16.4654C14.3751 17.3298 14.5477 18.7762 13.1916 19.0582L11.2931 17.4237C14.8931 17.0291 15.5342 16.2963 15.5342 14.0794C15.5342 12.6891 15.312 11.111 13.1177 11.111C11.4408 11.111 10.9724 11.7499 10.3066 13.478L9.32041 16.0334C8.97505 16.9165 6.6081 16.3902 6.16425 17.0478C5.42462 18.1186 5.5973 19.0017 4.6108 19.0017C3.37808 19.0017 3.45194 17.4049 2.86004 16.7283C1.9973 15.7704 0 15.9582 0 14.2862C0 12.6139 2.27667 13.2886 3.50972 11.7105Z" fill="#53EAFD"/>
<path d="M15.0904 8.43777C13.6111 10.2978 13.7835 10.8238 12.5754 10.9928L12.8866 9.3399C16.6977 10.2594 15.5342 8.3813 15.5342 5.71364C15.5342 3.7032 14.8685 2.89529 13.5123 2.89529C11.7123 2.89529 11.4411 3.40249 10.7508 5.24386L9.81382 7.72374C9.51771 8.4939 7.3973 8.00574 6.83035 8.55037C5.9919 9.43346 6.21382 10.7673 4.75918 10.7673C3.25497 10.7673 3.35346 8.96368 2.7865 8.2687C2.1946 7.55467 0 7.57338 0 5.92013C0 4.15427 2.04654 4.49241 2.88499 3.53414C3.62495 2.67008 3.45227 1.22332 4.80842 0.94165L6.70691 2.57587C3.10691 2.97047 2.46577 3.7032 2.46577 5.92013C2.46577 7.31043 2.68802 8.8885 4.88229 8.8885C6.55918 8.8885 7.02765 8.24999 7.69341 6.52155L8.67959 3.96616C9.02495 3.0834 11.3919 3.60931 11.8357 2.95175C12.5754 1.88088 12.4027 0.997788 13.3892 0.997788C14.6219 0.997788 14.5481 2.59491 15.14 3.27118C16.0027 4.22945 18 4.04134 18 5.71364C18 7.3856 16.3234 6.85969 15.0904 8.43777Z" fill="#53EAFD"/>
</svg>
